<?xml version="1.0" standalone="no"?>
<!DOCTYPE svg PUBLIC "-//W3C//DTD SVG 20010904//EN"
 "http://www.w3.org/TR/2001/REC-SVG-20010904/DTD/svg10.dtd">
<svg version="1.0" xmlns="http://www.w3.org/2000/svg"
 width="1200.000000pt" height="1200.000000pt" viewBox="0 0 1200.000000 1200.000000"
 preserveAspectRatio="xMidYMid meet">
<metadata>
Created by potrace 1.14, written by Peter Selinger 2001-2017
</metadata>
<g transform="translate(0.000000,1200.000000) scale(0.100000,-0.100000)"
fill="#000000" stroke="none">
<path d="M5620 8709 c-265 -32 -384 -55 -560 -111 -256 -81 -258 -82 -505
-204 -133 -66 -193 -101 -350 -207 -139 -94 -403 -352 -596 -584 -14 -18 -25
-21 -56 -17 -53 7 -291 52 -333 64 -19 5 -67 14 -107 20 -40 6 -83 14 -95 16
-28 5 -113 20 -188 32 -30 6 -75 15 -100 22 -25 7 -72 17 -105 22 -33 5 -80
13 -105 18 -25 4 -117 17 -205 29 -88 11 -180 25 -205 30 -62 13 -354 54 -480
67 -25 2 -85 8 -135 14 -343 36 -442 42 -673 38 -163 -3 -235 -7 -244 -16 -7
-7 -35 -12 -63 -13 -86 -1 -177 -30 -238 -78 -31 -23 -59 -52 -63 -63 -10 -31
4 -80 31 -112 14 -16 25 -32 25 -36 0 -13 136 -140 195 -182 33 -23 69 -50 79
-60 11 -10 24 -18 28 -18 5 0 21 -11 35 -25 15 -13 52 -34 83 -46 90 -36 124
-52 144 -71 11 -10 25 -18 32 -18 7 0 14 -3 16 -7 2 -5 35 -24 73 -44 130 -68
160 -84 165 -90 3 -3 20 -12 37 -20 18 -8 33 -17 33 -21 0 -5 6 -8 13 -8 8 0
27 -7 44 -15 16 -8 70 -19 119 -24 49 -5 97 -13 107 -16 11 -5 17 -2 17 6 0
10 3 10 8 3 4 -6 30 -14 57 -17 137 -16 164 -20 160 -26 -6 -11 -165 -3 -179
8 -6 5 -44 11 -84 13 -39 2 -72 6 -72 11 0 4 -7 7 -15 7 -29 0 -14 -15 37 -38
39 -17 54 -19 64 -11 11 9 14 8 14 -5 0 -15 14 -20 48 -19 6 1 12 -3 12 -7 0
-8 65 -41 120 -61 19 -7 42 -18 51 -26 8 -7 22 -13 30 -13 8 0 44 -15 80 -34
36 -18 77 -36 90 -39 46 -11 111 -38 137 -57 15 -11 46 -21 69 -23 24 -1 43
-5 43 -9 0 -11 69 -40 280 -120 30 -12 69 -27 85 -34 17 -7 50 -17 72 -22 23
-5 54 -19 69 -31 15 -11 33 -21 40 -21 8 0 22 -5 32 -10 9 -6 44 -19 77 -30
107 -34 220 -75 238 -86 17 -10 17 -15 2 -110 -25 -163 -29 -360 -10 -514 10
-74 20 -164 24 -200 13 -112 66 -321 126 -490 106 -302 226 -529 405 -770 31
-41 63 -87 72 -102 27 -42 327 -339 393 -388 33 -24 83 -63 110 -86 60 -49
202 -144 215 -144 6 0 10 -4 10 -10 0 -5 5 -10 11 -10 6 0 30 -14 54 -30 24
-17 47 -30 52 -30 4 0 19 -9 33 -20 14 -11 33 -20 42 -20 9 0 18 -3 20 -7 10
-23 236 -115 423 -172 55 -16 130 -39 167 -50 37 -12 83 -21 102 -21 19 0 38
-4 41 -10 3 -5 28 -10 55 -10 27 0 52 -4 55 -10 3 -5 32 -10 64 -10 31 0 62
-5 68 -11 7 -7 101 -9 294 -5 296 5 390 11 424 26 19 8 39 12 155 26 25 3 49
10 54 15 6 5 23 9 38 9 16 0 36 4 46 9 9 5 33 13 52 19 143 42 216 66 224 74
6 4 18 8 28 8 10 0 18 5 18 10 0 6 11 10 25 10 14 0 25 5 25 10 0 6 14 10 30
10 17 0 30 5 30 10 0 6 7 10 15 10 8 0 15 5 15 10 0 6 9 10 20 10 11 0 20 5
20 10 0 6 11 10 25 10 14 0 25 5 25 10 0 6 6 10 14 10 8 0 16 3 18 8 2 4 26
18 53 32 28 13 73 39 102 57 29 18 57 33 63 33 5 0 10 5 10 10 0 6 6 10 13 10
7 0 23 9 35 20 12 11 26 20 32 20 5 0 10 5 10 10 0 6 7 10 15 10 8 0 15 5 15
10 0 6 6 10 13 10 7 0 19 9 27 20 8 11 18 20 23 20 5 0 15 6 22 13 8 6 35 30
60 52 172 149 355 332 355 356 0 5 5 7 10 4 6 -3 10 -1 10 5 0 6 9 21 21 33
11 12 30 35 42 50 12 15 32 40 44 55 13 15 23 33 23 40 0 6 4 12 8 12 5 0 15
12 23 28 8 15 22 36 32 46 9 11 17 26 17 33 0 7 5 13 10 13 6 0 10 7 10 15 0
8 5 15 10 15 6 0 10 7 10 15 0 8 5 15 10 15 6 0 10 7 10 15 0 8 5 15 10 15 6
0 10 9 10 20 0 11 5 20 10 20 6 0 10 7 10 15 0 8 5 15 10 15 6 0 10 9 10 20 0
11 5 20 10 20 6 0 10 6 10 13 0 6 13 40 30 74 32 69 30 68 130 43 77 -19 222
-51 350 -75 74 -15 146 -29 160 -32 14 -3 34 -7 45 -8 37 -4 150 -27 173 -36
13 -5 38 -9 55 -9 18 0 37 -4 43 -9 5 -5 29 -12 54 -15 48 -6 129 -19 220 -35
88 -15 190 -32 255 -42 33 -5 76 -11 95 -14 298 -44 399 -55 721 -79 107 -8
240 -20 295 -26 54 -6 171 -10 259 -7 257 7 399 47 475 134 26 29 31 41 26 67
-17 85 -80 166 -222 284 -40 33 -289 202 -299 202 -2 0 -28 15 -57 34 -29 18
-146 81 -260 140 -114 58 -219 113 -235 121 -15 8 -75 35 -133 60 -58 25 -116
52 -130 60 -14 7 -50 23 -80 35 -30 12 -71 28 -90 37 -19 8 -51 22 -70 30 -19
9 -67 31 -107 49 -40 19 -75 34 -78 34 -7 0 -155 65 -208 91 -22 10 -43 19
-48 19 -5 0 -28 8 -52 19 -23 10 -58 24 -77 31 -19 7 -44 16 -55 20 -11 4 -47
18 -80 30 -33 12 -68 26 -78 31 -9 5 -47 20 -85 34 -37 14 -76 29 -87 34 -71
31 -93 40 -120 47 -16 4 -34 10 -40 14 -5 3 -30 12 -55 20 -25 7 -49 17 -54
22 -6 4 -18 8 -28 8 -10 0 -29 7 -41 15 -13 8 -62 28 -110 44 l-87 29 -1 -42
c-1 -22 -9 23 -18 101 -9 78 -19 145 -23 149 -5 4 -8 36 -8 71 0 35 -4 63 -10
63 -5 0 -10 20 -10 45 0 25 -4 45 -10 45 -5 0 -10 18 -10 40 0 22 -4 40 -10
40 -5 0 -10 14 -10 30 0 17 -4 30 -10 30 -5 0 -10 14 -10 30 0 17 -4 30 -10
30 -5 0 -10 14 -10 30 0 17 -4 30 -10 30 -5 0 -10 11 -10 25 0 14 -4 25 -10
25 -5 0 -10 11 -10 25 0 14 -4 25 -10 25 -5 0 -10 11 -10 25 0 14 -4 25 -10
25 -5 0 -10 7 -10 16 0 21 -58 142 -87 180 -13 17 -23 41 -23 52 0 12 -4 22
-10 22 -5 0 -10 9 -10 20 0 11 -4 20 -10 20 -5 0 -10 9 -10 20 0 11 -4 20 -10
20 -5 0 -10 7 -10 15 0 8 -4 15 -10 15 -5 0 -10 9 -10 20 0 11 -4 20 -10 20
-5 0 -10 6 -10 13 0 6 -14 28 -30 47 -16 19 -30 38 -30 42 0 4 -6 16 -14 25
-35 43 -116 155 -116 159 0 3 -6 11 -12 19 -7 7 -58 62 -113 121 -130 139
-180 189 -244 244 -29 25 -59 51 -66 58 -7 6 -16 12 -20 12 -3 0 -16 9 -28 21
-34 32 -174 129 -186 129 -6 0 -11 5 -11 10 0 6 -6 10 -13 10 -7 0 -23 9 -35
20 -12 11 -28 20 -37 20 -8 0 -15 5 -15 10 0 6 -6 10 -14 10 -8 0 -16 3 -18 8
-4 10 -87 52 -104 52 -8 0 -14 5 -14 10 0 6 -5 10 -11 10 -6 0 -23 8 -37 18
-15 10 -81 40 -147 66 -66 26 -128 52 -137 57 -10 5 -27 9 -37 9 -11 0 -23 5
-26 10 -3 6 -17 10 -30 10 -13 0 -27 5 -30 10 -3 6 -19 10 -35 10 -16 0 -32 5
-35 10 -3 6 -19 10 -35 10 -16 0 -31 4 -34 9 -3 5 -20 11 -38 14 -18 4 -55 10
-83 16 -193 37 -423 61 -565 60 -58 -1 -175 -10 -260 -20z m1573 -646 c18 -17
19 -17 29 1 9 16 11 16 24 -9 17 -33 11 -45 -25 -45 -25 0 -81 44 -81 63 0 13
34 7 53 -10z m187 -41 c0 -15 50 -32 76 -26 31 8 111 -30 224 -106 37 -25 60
-16 28 10 -33 27 -12 25 22 -2 61 -49 75 -58 91 -58 10 0 25 -3 33 -6 12 -5
15 -2 10 10 -11 29 13 17 59 -31 118 -124 245 -280 277 -342 7 -13 26 -42 44
-66 18 -23 54 -86 81 -141 27 -54 62 -118 77 -141 28 -41 140 -313 167 -403 7
-25 17 -54 21 -65 8 -17 22 -76 61 -253 5 -23 9 -58 9 -76 0 -19 4 -46 10 -61
5 -14 13 -110 16 -213 5 -171 5 -185 -10 -167 -8 11 -16 31 -16 45 -1 40 -11
70 -25 70 -7 0 -16 7 -19 16 -4 10 -14 14 -25 11 -12 -3 -28 4 -42 19 l-22 24
25 0 c13 0 27 3 31 6 8 8 -37 45 -92 75 -25 13 -56 34 -70 47 -13 12 -32 21
-40 19 -9 -2 -33 5 -54 15 -22 11 -45 17 -53 14 -8 -3 -14 -2 -14 3 0 5 -12
13 -27 19 -16 6 -37 14 -48 18 -11 4 -26 6 -33 5 -11 -2 -32 8 -134 60 -10 5
-26 9 -37 9 -10 0 -30 9 -44 20 -14 11 -34 20 -45 20 -12 0 -24 4 -27 10 -3 5
-25 14 -48 20 -76 20 -167 70 -127 70 26 0 -3 18 -37 23 -21 4 -82 29 -137 57
-54 27 -104 50 -111 50 -7 0 -18 7 -25 15 -7 8 -20 15 -29 15 -17 1 -83 50
-66 50 6 0 26 -4 44 -10 25 -7 39 -6 49 2 11 10 4 15 -37 29 -58 18 -96 20
-96 2 0 -22 -12 -23 -30 -3 -10 11 -24 20 -30 20 -7 0 -34 17 -61 38 -69 54
-121 82 -151 82 -13 0 -38 9 -54 20 -15 12 -51 26 -79 33 -47 11 -50 14 -45
37 8 30 8 27 6 73 -1 28 -5 37 -18 37 -10 0 -27 7 -37 15 -11 8 -27 15 -35 15
-19 0 -71 52 -71 71 0 8 6 7 18 -4 21 -20 49 -21 89 -6 19 7 29 7 31 0 5 -14
52 -14 52 -1 0 6 -11 16 -25 22 -18 8 -24 17 -19 30 6 19 -20 26 -31 8 -3 -5
-17 -10 -31 -10 -13 0 -24 5 -24 10 0 6 11 10 25 10 18 0 25 5 25 20 0 11 6
20 14 20 19 0 40 26 26 35 -5 3 -10 15 -10 26 0 12 -7 19 -20 19 -16 0 -20 -7
-20 -30 0 -20 -5 -30 -15 -30 -19 0 -19 2 5 45 11 20 20 44 20 55 0 22 22 39
28 22 4 -14 38 -16 47 -2 3 5 -6 12 -20 16 -44 11 -30 34 21 34 58 0 55 21 -4
34 -51 11 -55 26 -7 26 22 0 41 7 53 20 15 16 24 19 43 12 30 -11 49 -5 49 15
0 8 -6 13 -13 10 -10 -4 -13 10 -11 55 1 51 -2 61 -17 65 -11 3 -19 13 -19 22
1 20 34 61 50 61 8 0 10 9 6 24 -5 19 -1 26 15 31 12 4 24 2 28 -4 4 -6 20 -9
36 -8 24 2 29 -2 27 -16 -3 -20 20 -32 45 -23 12 5 14 9 5 18 -20 20 -14 26
21 22 67 -10 107 -10 107 -2 0 5 -11 13 -24 18 -13 5 -27 14 -31 19 -3 6 -12
11 -20 11 -7 0 -36 15 -64 33 -27 17 -66 41 -86 53 l-37 20 55 0 c39 -1 53 -4
50 -14 -4 -8 0 -10 11 -6 9 3 27 -1 41 -10 30 -20 35 -20 35 -2 0 8 -9 18 -20
21 -31 10 -24 25 11 25 19 0 45 -11 69 -30 45 -35 80 -40 80 -10 0 26 16 25
74 -4 27 -13 60 -27 75 -31 l26 -7 -22 19 c-12 10 -42 34 -67 53 -48 37 -56
50 -31 50 8 0 15 -4 15 -8z m-270 -12 c0 -13 -11 -13 -30 0 -12 8 -11 10 8 10
12 0 22 -4 22 -10z m-180 -170 c0 -5 -12 -10 -26 -10 -14 0 -23 4 -19 10 3 6
15 10 26 10 10 0 19 -4 19 -10z m-20 -221 c0 -24 -23 -21 -28 4 -2 10 3 17 12
17 10 0 16 -9 16 -21z m-127 -635 c3 -3 3 -12 1 -19 -4 -11 -12 -11 -37 -2
l-32 11 25 7 c34 10 36 10 43 3z m-3948 -54 c44 -5 136 -14 205 -21 69 -6 133
-15 143 -21 19 -10 23 -48 6 -65 -6 -6 -25 -49 -41 -95 -27 -77 -37 -126 -56
-270 -9 -71 -22 -86 -57 -70 -14 7 -33 12 -42 12 -9 0 -26 9 -38 20 -23 21
-161 92 -185 94 -31 3 -96 29 -125 50 -16 12 -47 30 -67 41 -21 11 -38 22 -38
26 0 4 -23 17 -52 29 -62 26 -150 95 -166 129 -18 38 -15 86 7 105 12 11 48
21 98 27 43 5 83 11 88 14 18 7 238 4 320 -5z m3372 -406 c-3 -3 -12 -4 -19
-1 -8 3 -5 6 6 6 11 1 17 -2 13 -5z m153 -44 c0 -13 -11 -13 -30 0 -12 8 -11
10 8 10 12 0 22 -4 22 -10z m150 -50 c0 -5 -2 -10 -4 -10 -3 0 -8 5 -11 10 -3
6 -1 10 4 10 6 0 11 -4 11 -10z m1020 -20 c0 -5 -6 -10 -14 -10 -8 0 -18 5
-21 10 -3 6 3 10 14 10 12 0 21 -4 21 -10z m-756 -49 c3 -5 0 -11 -8 -14 -15
-6 -26 1 -26 15 0 11 27 10 34 -1z m41 -21 c-3 -5 -11 -10 -16 -10 -6 0 -7 5
-4 10 3 6 11 10 16 10 6 0 7 -4 4 -10z m111 -34 c10 -8 16 -17 12 -21 -3 -4
-16 3 -27 14 -24 24 -15 28 15 7z m68 -21 c25 -19 16 -19 -20 0 -16 8 -22 15
-14 15 8 -1 24 -7 34 -15z m976 -10 c7 -9 10 -18 7 -22 -8 -7 -37 15 -37 28 0
14 16 11 30 -6z m-860 -28 c17 -14 19 -18 7 -14 -10 4 -27 7 -37 7 -11 0 -24
9 -31 21 -10 19 -9 20 13 14 12 -4 34 -17 48 -28z m-80 -4 c0 -19 -3 -24 -10
-17 -6 6 -8 18 -4 27 9 24 14 21 14 -10z m1010 -3 c0 -5 -7 -10 -15 -10 -8 0
-15 5 -15 10 0 6 7 10 15 10 8 0 15 -4 15 -10z m-868 -22 c-6 -6 -15 -8 -19
-4 -4 4 -1 11 7 16 19 12 27 3 12 -12z m93 -8 c22 -11 50 -19 62 -20 12 0 25
-4 28 -10 3 -5 17 -10 30 -10 13 0 27 -4 30 -10 3 -5 18 -10 31 -10 16 0 24
-5 21 -12 -5 -15 -80 -13 -85 2 -2 5 -12 10 -22 10 -10 0 -22 5 -25 10 -3 6
-17 10 -30 10 -13 0 -36 7 -52 14 -15 8 -37 18 -48 21 -16 5 -17 8 -5 15 19
12 18 13 65 -10z m-1105 0 c0 -5 -7 -7 -15 -4 -8 4 -15 8 -15 10 0 2 7 4 15 4
8 0 15 -4 15 -10z m1995 -10 c3 -5 -1 -10 -10 -10 -9 0 -13 5 -10 10 3 6 8 10
10 10 2 0 7 -4 10 -10z m-2238 -17 c51 -16 54 -16 67 3 13 17 16 18 33 2 10
-8 38 -19 63 -23 35 -5 42 -4 30 5 -12 9 -9 10 15 5 17 -4 34 -13 38 -21 6
-10 29 -14 83 -14 47 0 73 4 69 10 -10 16 81 1 185 -31 52 -16 101 -29 110
-29 9 0 35 -9 58 -20 22 -11 46 -20 52 -20 6 0 39 -9 73 -19 34 -10 89 -26
122 -36 33 -9 69 -20 80 -25 77 -32 168 -64 210 -75 28 -8 75 -21 105 -30 30
-10 74 -22 98 -28 23 -7 42 -15 42 -19 0 -5 14 -8 30 -8 46 0 36 26 -12 33
-13 2 -18 9 -18 27 0 15 22 12 65 -10 22 -11 50 -20 62 -20 13 0 23 -3 23 -8
0 -4 38 -16 85 -26 47 -10 85 -23 85 -27 0 -5 21 -8 48 -6 42 2 47 0 50 -20 2
-13 10 -23 20 -23 12 0 13 3 4 12 -7 7 -12 17 -12 24 0 17 38 24 44 8 3 -8 16
-14 30 -14 14 0 28 -4 31 -10 3 -5 19 -10 36 -10 33 0 39 -19 9 -27 -22 -6
-26 -18 -10 -28 12 -8 58 25 63 45 2 10 8 6 17 -12 15 -31 25 -34 45 -15 14
15 8 31 -12 33 -27 2 -31 5 -36 26 -5 18 -8 19 -21 8 -9 -7 -16 -8 -16 -2 0 5
-21 14 -47 19 -32 5 -48 13 -48 23 0 17 46 15 56 -2 4 -6 19 -8 34 -6 19 4 34
-1 53 -19 14 -13 34 -22 43 -20 9 2 21 -5 28 -15 10 -16 9 -23 -5 -39 -16 -17
-16 -19 -1 -19 10 0 17 7 17 15 0 18 12 19 28 3 9 -9 15 -9 24 0 18 18 28 15
28 -8 0 -25 16 -26 29 -2 9 16 12 15 27 -7 10 -14 25 -32 34 -41 9 -9 14 -22
12 -28 -2 -7 7 -12 22 -12 13 0 28 -4 31 -10 6 -10 45 -15 45 -6 0 18 -14 33
-29 29 -9 -2 -25 5 -36 17 -18 20 -18 21 1 35 34 26 71 16 43 -12 -8 -8 -8
-13 0 -17 6 -4 11 -2 11 3 0 6 7 19 16 30 16 19 18 18 49 -16 23 -25 38 -34
50 -29 12 4 18 0 22 -14 7 -25 25 -26 39 -2 15 23 11 67 -7 67 -8 0 -13 -8
-11 -17 2 -10 -1 -18 -5 -18 -16 1 -40 25 -36 38 3 6 0 12 -6 12 -6 0 -11 -4
-11 -10 0 -5 -9 -10 -19 -10 -13 0 -26 14 -38 40 -10 22 -24 40 -30 40 -18 0
-16 -19 2 -26 8 -4 15 -12 15 -20 0 -8 -7 -14 -15 -14 -8 0 -15 7 -15 15 0 21
-26 19 -34 -2 -6 -14 -9 -15 -16 -3 -8 13 -33 20 -77 22 -13 0 -23 6 -23 15 0
10 -6 12 -20 8 -14 -5 -20 -2 -20 9 0 9 -4 16 -10 16 -5 0 -10 -3 -10 -8 0
-12 -40 -33 -50 -27 -6 3 6 23 26 43 l36 37 -28 22 c-27 21 -44 22 -44 2 0 -5
9 -9 20 -9 29 0 25 -31 -7 -54 l-26 -19 5 26 c6 30 -7 35 -33 11 -12 -11 -19
-12 -24 -4 -4 7 2 14 14 17 12 3 21 13 21 22 0 28 -12 33 -27 11 -17 -24 -33
-26 -33 -5 0 8 5 15 10 15 6 0 10 5 10 11 0 7 -11 8 -30 4 -26 -6 -31 -3 -40
19 -7 18 -17 26 -34 26 -14 0 -28 5 -31 11 -4 6 -19 7 -36 4 -21 -5 -31 -2
-35 9 -3 9 -12 16 -20 16 -17 0 -19 -26 -3 -36 8 -4 8 -9 -1 -18 -13 -13 -33
11 -25 33 8 22 -35 53 -64 46 -21 -5 -23 -4 -12 9 12 14 9 16 -22 16 -20 0
-38 4 -42 10 -3 5 -12 7 -21 3 -8 -3 -21 3 -29 13 -14 18 -15 18 -21 -3 -7
-25 -9 -26 -39 -13 -17 7 -17 9 -2 9 10 1 17 9 17 21 0 16 -7 20 -32 20 -31 1
-68 19 -68 34 0 17 60 5 128 -27 13 -6 39 -11 58 -11 21 0 34 -5 34 -13 0 -7
11 -13 24 -13 14 0 28 -5 32 -11 4 -7 27 -10 60 -7 30 3 54 1 54 -4 0 -4 -5
-8 -12 -8 -6 0 -4 -8 6 -19 10 -11 25 -17 37 -14 10 3 34 -2 53 -11 19 -9 41
-16 49 -16 9 0 18 -4 22 -10 3 -5 12 -7 19 -4 7 3 30 -6 50 -20 21 -14 44 -22
52 -19 8 3 20 0 27 -6 7 -6 37 -15 66 -22 29 -6 55 -17 57 -24 3 -7 17 -16 32
-20 27 -7 82 -29 115 -46 13 -7 23 -7 32 1 10 8 15 8 22 -3 9 -15 53 -47 65
-47 4 0 5 7 2 15 -4 8 -2 15 4 15 5 0 13 -7 16 -15 3 -9 14 -15 23 -13 16 3
18 -6 16 -82 -3 -119 -31 -326 -60 -450 -27 -113 -88 -291 -124 -362 -5 -10
-9 -23 -9 -30 0 -14 -122 -260 -180 -363 -32 -58 -160 -250 -197 -296 -91
-113 -353 -376 -468 -468 -107 -86 -296 -211 -381 -253 -38 -19 -78 -39 -89
-45 -82 -48 -318 -145 -430 -177 -33 -10 -83 -24 -111 -33 -28 -8 -60 -13 -70
-11 -18 3 71 36 189 69 26 7 47 17 47 21 0 4 11 8 25 8 14 0 25 5 25 10 0 6
12 11 28 11 25 2 25 2 3 6 -13 3 -33 0 -45 -5 -12 -6 -95 -14 -186 -18 -232
-10 -241 -9 -267 21 -12 14 -27 25 -33 25 -5 0 -10 4 -10 8 0 11 100 31 220
43 138 13 183 21 152 27 -12 2 -20 8 -17 13 8 12 95 12 95 -1 0 -5 5 -10 10
-10 18 0 11 20 -17 46 -23 21 -25 27 -15 50 7 14 12 27 12 29 0 10 -36 5 -47
-6 -12 -12 -37 -3 -29 10 3 4 -28 6 -67 4 -51 -1 -78 2 -92 13 -19 14 -19 15
10 39 29 24 29 24 7 25 -13 0 -30 -7 -38 -15 -19 -19 -44 -19 -44 -1 0 10 17
16 58 20 31 3 93 10 136 15 54 6 85 6 96 -2 19 -11 50 -4 50 12 0 6 -12 13
-27 17 -16 3 -37 10 -48 15 -20 9 -88 17 -175 20 l-45 1 55 12 c60 13 100 32
100 45 0 12 -97 18 -116 8 -8 -4 -40 -2 -71 5 -43 10 -67 23 -99 53 -78 75
-102 87 -194 102 -19 3 -41 10 -47 15 -7 6 -47 12 -88 14 -42 2 -80 6 -85 9
-6 4 -3 17 6 31 16 24 16 24 -15 35 -37 13 -36 33 1 37 19 2 37 -8 69 -37 46
-45 66 -53 47 -20 -10 17 -10 23 0 26 19 7 14 25 -6 19 -10 -4 -27 0 -38 8
-19 15 -19 15 4 38 18 18 24 20 31 9 12 -19 24 4 13 26 -17 33 -30 83 -24 87
12 7 54 -13 48 -23 -3 -5 6 -12 20 -15 33 -9 44 1 15 12 -21 7 -21 9 -7 22 14
11 19 10 30 -5 16 -23 36 -12 36 21 0 30 11 30 61 -1 l40 -26 33 36 c20 21 37
32 41 25 13 -20 25 -10 19 17 -7 25 -6 26 33 21 49 -7 83 13 67 40 -6 9 -24
18 -40 20 -16 2 -33 9 -39 16 -25 32 -89 48 -98 24 -5 -17 -55 8 -62 32 -3 9
-17 22 -30 28 -15 7 -25 20 -25 32 0 19 -5 22 -40 24 -8 1 -15 7 -15 15 0 12
13 14 60 12 108 -5 124 -8 139 -20 11 -10 20 -10 37 0 22 11 25 11 154 -17 17
-3 46 -7 65 -9 19 -1 43 -5 53 -10 10 -4 31 -1 50 8 31 15 41 15 133 -3 54
-11 122 -24 149 -30 74 -14 135 -21 135 -15 0 3 -6 15 -12 26 -10 17 -10 23
-1 26 7 2 9 11 6 20 -5 13 0 15 33 9 42 -7 59 -7 89 -4 14 2 24 -6 34 -29 18
-40 46 -51 71 -28 18 16 20 16 37 -4 9 -12 24 -21 31 -21 12 0 12 3 2 15 -17
20 -5 32 15 15 24 -20 29 -4 8 23 -14 20 -24 24 -45 20 -21 -4 -28 -2 -28 10
0 16 42 31 78 28 16 -2 22 3 22 17 0 23 18 32 63 32 18 0 39 5 47 10 13 9 12
12 -5 22 -11 7 -33 13 -50 14 -31 3 -62 14 -105 40 -26 15 -129 15 -162 0 -11
-5 -26 1 -48 21 l-31 28 99 1 c112 1 160 10 144 26 -5 5 -30 11 -53 13 -126 8
-186 19 -226 42 -24 14 -43 28 -43 33 0 4 -11 11 -24 14 -13 3 -26 15 -29 27
-3 12 -10 18 -17 14 -8 -5 -8 -11 1 -21 34 -41 -36 -33 -141 15 -44 20 -44 20
-20 30 23 9 23 10 4 10 -12 1 -27 8 -34 16 -11 13 -10 15 6 14 45 -4 54 1 54
30 0 20 -6 30 -20 34 -33 9 -60 -4 -67 -31 -11 -46 -23 -50 -67 -28 -38 19
-39 21 -16 24 31 5 62 31 53 45 -4 6 0 8 11 4 10 -4 19 -1 22 8 4 10 20 15 44
15 44 0 70 8 70 21 0 5 -7 9 -16 9 -8 0 -12 5 -9 10 3 6 14 10 24 10 10 0 24
7 31 15 11 13 8 15 -19 15 -19 0 -34 -6 -37 -15 -7 -18 -45 -20 -62 -3 -19 19
-14 28 13 28 14 0 25 5 25 10 0 6 -11 10 -25 10 -14 0 -25 -4 -25 -10 0 -5 -7
-10 -15 -10 -8 0 -15 7 -15 15 0 15 -61 47 -95 49 -34 2 -32 21 3 24 17 2 32
7 32 12 0 8 -41 36 -48 32 -6 -5 -42 24 -42 35 0 7 -6 16 -12 20 -7 4 -19 18
-26 31 -11 20 -10 22 8 22 13 0 20 7 20 19 0 15 -10 21 -39 26 -51 8 -67 26
-51 56 9 17 9 27 -1 46 -11 21 -10 25 10 39 34 24 20 38 -38 40 -29 0 -57 6
-64 13 -6 6 -20 11 -31 11 -12 0 -30 7 -40 15 -11 8 -29 12 -43 9 -14 -4 -33
0 -48 10 -13 9 -31 16 -39 16 -9 0 -20 9 -26 20 -6 11 -15 20 -21 20 -6 0 -24
9 -40 21 -22 16 -27 24 -19 34 8 9 6 14 -5 19 -11 4 -14 13 -9 30 5 19 0 26
-25 37 -21 10 -27 17 -20 25 7 8 7 14 0 18 -6 4 -8 13 -4 21 8 21 -15 45 -43
45 -12 0 -26 5 -29 10 -3 6 -13 10 -21 10 -8 0 -22 8 -32 18 -10 9 -28 24 -40
32 -16 11 -22 25 -22 54 0 22 3 36 7 33 7 -8 33 11 33 24 0 5 -9 9 -20 9 -11
0 -20 -4 -20 -10 0 -5 -4 -10 -10 -10 -5 0 -10 9 -10 19 0 11 -6 22 -12 24
-31 13 10 6 59 -10z m290 11 c-3 -3 -12 -4 -19 -1 -8 3 -5 6 6 6 11 1 17 -2
13 -5z m2007 -26 c-3 -5 -12 -4 -20 3 -19 16 -18 18 6 12 11 -3 17 -9 14 -15z
m56 -13 c0 -8 -4 -15 -9 -15 -13 0 -22 16 -14 24 11 11 23 6 23 -9z m-2414
-32 c-11 -11 -19 6 -11 24 8 17 8 17 12 0 3 -10 2 -21 -1 -24z m1826 1 c-7
-12 -11 -13 -17 -4 -4 7 -2 16 6 21 18 11 23 4 11 -17z m-164 -2 c2 -7 -7 -12
-22 -12 -27 0 -35 15 -13 23 17 7 30 3 35 -11z m517 -22 c-3 -5 -10 -10 -16
-10 -5 0 -9 5 -9 10 0 6 7 10 16 10 8 0 12 -4 9 -10z m415 -9 c0 -6 -4 -13
-10 -16 -5 -3 -10 1 -10 9 0 9 5 16 10 16 6 0 10 -4 10 -9z m60 -11 c0 -5 -4
-10 -10 -10 -5 0 -10 5 -10 10 0 6 5 10 10 10 6 0 10 -4 10 -10z m-1020 -9 c0
-5 -7 -11 -15 -15 -15 -5 -20 5 -8 17 9 10 23 9 23 -2z m500 -11 c0 -5 -5 -10
-11 -10 -5 0 -7 5 -4 10 3 6 8 10 11 10 2 0 4 -4 4 -10z m-442 -18 c2 -7 -3
-12 -12 -12 -9 0 -16 7 -16 16 0 17 22 14 28 -4z m602 -18 c0 -2 -7 -4 -15 -4
-8 0 -15 4 -15 10 0 5 7 7 15 4 8 -4 15 -8 15 -10z m-423 -29 c11 -4 13 -9 6
-16 -14 -14 -53 -2 -53 16 0 8 7 12 15 10 8 -3 23 -7 32 -10z m-137 -17 c0 -6
-7 -7 -16 -4 -9 3 -18 6 -20 6 -3 0 -3 4 1 10 7 11 35 2 35 -12z m740 -13 c0
-8 -4 -15 -10 -15 -5 0 -10 7 -10 15 0 8 5 15 10 15 6 0 10 -7 10 -15z m-555
-5 c-3 -5 -10 -10 -16 -10 -5 0 -9 5 -9 10 0 6 7 10 16 10 8 0 12 -4 9 -10z
m-575 -10 c0 -5 -9 -10 -19 -10 -11 0 -23 5 -26 10 -4 6 5 10 19 10 14 0 26
-4 26 -10z m1010 1 c0 -5 -7 -11 -15 -15 -15 -5 -20 5 -8 17 9 10 23 9 23 -2z
m-360 -11 c0 -13 -11 -13 -30 0 -12 8 -11 10 8 10 12 0 22 -4 22 -10z m-215
-10 c4 -6 -5 -10 -20 -10 -15 0 -24 4 -20 10 3 6 12 10 20 10 8 0 17 -4 20
-10z m70 0 c3 -5 -1 -10 -9 -10 -9 0 -16 5 -16 10 0 6 4 10 9 10 6 0 13 -4 16
-10z m93 -12 c2 -9 -6 -22 -18 -28 -23 -12 -43 -4 -22 9 7 4 10 15 6 25 -5 14
-3 17 12 14 10 -2 20 -11 22 -20z m450 5 c-5 -25 -28 -28 -28 -4 0 12 6 21 16
21 9 0 14 -7 12 -17z m52 -8 c0 -8 -7 -15 -15 -15 -8 0 -15 7 -15 15 0 8 7 15
15 15 8 0 15 -7 15 -15z m115 6 c3 -5 1 -12 -5 -16 -5 -3 -10 1 -10 9 0 18 6
21 15 7z m-1070 -11 c3 -5 -1 -10 -9 -10 -9 0 -16 5 -16 10 0 6 4 10 9 10 6 0
13 -4 16 -10z m325 0 c0 -5 -4 -10 -10 -10 -5 0 -10 5 -10 10 0 6 5 10 10 10
6 0 10 -4 10 -10z m60 0 c0 -5 -5 -10 -11 -10 -5 0 -7 5 -4 10 3 6 8 10 11 10
2 0 4 -4 4 -10z m-331 -22 c11 -10 14 -10 18 0 5 13 33 17 33 4 0 -5 -8 -16
-19 -26 -14 -13 -24 -14 -45 -7 -14 6 -26 17 -26 26 0 18 21 20 39 3z m461 5
c0 -12 -51 -33 -62 -27 -15 9 13 34 38 34 13 0 24 -3 24 -7z m140 -8 c0 -15
-26 -32 -36 -23 -2 3 -2 13 2 22 8 20 34 21 34 1z m40 0 c0 -9 -6 -12 -15 -9
-8 4 -12 10 -9 15 8 14 24 10 24 -6z m-460 -10 c0 -8 -7 -15 -15 -15 -16 0
-20 12 -8 23 11 12 23 8 23 -8z m358 -2 c-4 -20 -18 -26 -37 -14 -18 12 -5 31
20 31 14 0 19 -6 17 -17z m582 2 c0 -8 -4 -15 -10 -15 -5 0 -10 7 -10 15 0 8
5 15 10 15 6 0 10 -7 10 -15z m-810 -21 c0 -11 6 -13 19 -9 11 3 22 1 25 -4
12 -20 -15 -22 -55 -4 -33 14 -37 19 -22 24 28 11 33 10 33 -7z m164 -10 c9
-24 0 -28 -23 -12 -12 8 -18 18 -14 21 12 12 31 7 37 -9z m816 -14 c0 -16 -2
-30 -5 -30 -9 0 -26 41 -20 50 12 20 25 9 25 -20z m-760 0 c0 -5 -4 -10 -10
-10 -5 0 -10 5 -10 10 0 6 5 10 10 10 6 0 10 -4 10 -10z m125 0 c3 -5 -1 -10
-9 -10 -9 0 -16 5 -16 10 0 6 4 10 9 10 6 0 13 -4 16 -10z m475 6 c0 -2 -7 -9
-15 -16 -13 -11 -14 -10 -9 4 5 14 24 23 24 12z m-723 -23 c2 -6 -4 -13 -13
-17 -21 -8 -39 15 -21 26 15 9 30 5 34 -9z m-1297 -333 c0 -5 -7 -10 -15 -10
-8 0 -15 5 -15 10 0 6 7 10 15 10 8 0 15 -4 15 -10z m2223 -168 c29 -12 57
-22 62 -22 9 0 140 -65 348 -173 48 -25 103 -57 122 -71 18 -14 36 -26 40 -26
3 0 11 -5 18 -10 7 -6 35 -25 62 -43 28 -17 59 -43 70 -57 11 -14 30 -35 43
-47 34 -31 28 -93 -10 -111 -27 -13 -246 -44 -258 -37 -3 2 -51 7 -106 10
-121 7 -353 32 -414 44 -93 19 -189 24 -205 11 -12 -10 -15 -10 -15 4 0 9 4
24 9 34 5 9 14 31 21 47 7 17 16 38 21 47 5 10 9 27 9 38 0 11 5 20 10 20 6 0
10 11 10 25 0 14 5 25 10 25 6 0 10 14 10 30 0 17 5 30 10 30 6 0 10 16 10 35
0 19 5 35 10 35 6 0 10 18 10 40 0 22 5 40 10 40 6 0 10 23 10 51 0 31 4 48
10 44 6 -4 11 8 11 27 2 28 3 29 6 7 3 -20 15 -30 56 -47z m-1953 -192 c0 -5
-4 -10 -10 -10 -5 0 -10 5 -10 10 0 6 5 10 10 10 6 0 10 -4 10 -10z m-130 -60
c0 -5 -2 -10 -4 -10 -3 0 -8 5 -11 10 -3 6 -1 10 4 10 6 0 11 -4 11 -10z m469
-296 c1 -1 0 -8 -4 -14 -5 -8 -11 -7 -23 2 -12 10 -16 10 -19 0 -3 -6 -9 -9
-14 -6 -18 11 12 35 35 28 12 -4 23 -8 25 -10z m319 -131 c5 -18 -23 -16 -39
3 -11 14 -10 15 11 12 13 -1 25 -9 28 -15z m-181 -37 c12 -13 20 -26 16 -29
-6 -7 -53 33 -53 46 0 13 15 7 37 -17z m-489 5 c10 -6 8 -9 -10 -13 -33 -6
-55 1 -37 13 18 11 30 11 47 0z m692 -1 c0 -5 -7 -10 -16 -10 -8 0 -12 5 -9
10 3 6 10 10 16 10 5 0 9 -4 9 -10z m-417 -67 c-7 -2 -19 -2 -25 0 -7 3 -2 5
12 5 14 0 19 -2 13 -5z m41 -9 c9 -3 14 -10 11 -15 -7 -10 -35 0 -35 12 0 11
3 11 24 3z m-984 -218 c0 -9 -30 -14 -35 -6 -4 6 3 10 14 10 12 0 21 -2 21 -4z
m187 -47 c-14 -8 -22 -8 -30 0 -8 8 -3 11 19 11 25 -1 27 -2 11 -11z m-252
-129 c0 -7 -6 -15 -12 -17 -8 -3 -13 4 -13 17 0 13 5 20 13 18 6 -3 12 -11 12
-18z m-185 -150 c0 -5 -4 -10 -9 -10 -6 0 -13 5 -16 10 -3 6 1 10 9 10 9 0 16
-4 16 -10z m415 -126 c44 -6 55 -11 55 -25 0 -12 -55 -12 -78 0 -9 6 -29 12
-44 16 -16 3 -28 10 -28 16 0 7 10 9 28 5 15 -3 45 -9 67 -12z m365 -414 c0
-5 -4 -10 -10 -10 -5 0 -10 5 -10 10 0 6 5 10 10 10 6 0 10 -4 10 -10z m-130
-40 c11 -7 6 -10 -20 -10 -26 0 -31 3 -20 10 8 5 17 10 20 10 3 0 12 -5 20
-10z m-180 -65 c0 -8 -6 -15 -14 -15 -17 0 -28 14 -19 24 12 12 33 6 33 -9z
m200 -185 c0 -5 -19 -10 -42 -10 -32 0 -39 3 -28 10 20 13 70 13 70 0z m-104
-19 c-6 -9 -48 -18 -126 -27 -33 -4 -41 -2 -30 5 8 6 31 11 50 12 19 0 44 4
55 9 27 12 58 12 51 1z m-246 -41 c0 -6 -25 -10 -57 -9 -42 0 -52 3 -38 9 28
12 95 12 95 0z"/>
<path d="M7451 7976 c16 -14 69 -35 69 -26 0 5 -7 10 -15 10 -8 0 -15 5 -15
10 0 6 -10 10 -22 10 -12 0 -19 -2 -17 -4z"/>
<path d="M7735 7860 c3 -5 8 -10 11 -10 2 0 4 5 4 10 0 6 -5 10 -11 10 -5 0
-7 -4 -4 -10z"/>
<path d="M7862 7810 c-21 -18 -22 -21 -9 -35 18 -17 37 -20 37 -5 0 15 21 12
42 -7 28 -25 21 -2 -11 35 -16 17 -30 32 -32 32 -2 -1 -15 -9 -27 -20z m38 -6
c0 -3 -7 -12 -15 -20 -16 -17 -18 -14 -9 10 6 15 24 23 24 10z"/>
<path d="M7266 7795 c10 -8 23 -15 28 -15 6 0 1 7 -10 15 -10 8 -23 15 -28 15
-6 0 -1 -7 10 -15z"/>
<path d="M6940 7730 c0 -5 5 -10 11 -10 5 0 7 5 4 10 -3 6 -8 10 -11 10 -2 0
-4 -4 -4 -10z"/>
<path d="M6848 7198 c9 -9 15 -9 24 0 9 9 7 12 -12 12 -19 0 -21 -3 -12 -12z"/>
<path d="M6848 7143 c6 -2 18 -2 25 0 6 3 1 5 -13 5 -14 0 -19 -2 -12 -5z"/>
<path d="M7454 6703 c19 -10 31 -11 46 -3 11 6 20 12 20 14 0 1 -21 3 -46 3
-45 0 -46 -1 -20 -14z"/>
<path d="M7548 5812 c-28 -6 -21 -16 25 -34 48 -20 67 -22 67 -8 0 6 -13 10
-28 10 -18 0 -32 7 -38 18 -5 10 -17 16 -26 14z"/>
<path d="M8280 5809 c0 -13 29 -38 45 -39 6 0 11 11 11 25 2 21 -2 25 -27 25
-16 0 -29 -5 -29 -11z"/>
<path d="M8365 5790 c-3 -5 1 -10 9 -10 9 0 16 -4 16 -10 0 -5 -10 -10 -22
-10 -17 0 -19 -3 -10 -12 8 -8 15 -8 26 2 13 10 17 9 22 -3 7 -19 34 -11 34 9
0 8 -6 14 -14 14 -7 0 -19 7 -26 15 -14 17 -26 19 -35 5z"/>
<path d="M7665 5761 c-3 -6 3 -15 14 -20 24 -14 31 -14 31 -1 0 14 -38 32 -45
21z"/>
<path d="M7810 5760 c0 -5 7 -10 15 -10 8 0 15 5 15 10 0 6 -7 10 -15 10 -8 0
-15 -4 -15 -10z"/>
<path d="M8526 5742 c-7 -12 22 -38 31 -28 4 3 0 14 -9 22 -9 10 -18 12 -22 6z"/>
<path d="M7755 5720 c3 -5 14 -10 24 -10 9 0 21 -4 27 -9 5 -5 20 -12 34 -16
40 -12 8 16 -37 32 -46 15 -56 16 -48 3z"/>
<path d="M7936 5721 c-7 -10 23 -20 42 -14 6 3 10 9 6 14 -7 12 -41 12 -48 0z"/>
<path d="M8060 5684 c0 -12 35 -33 55 -33 18 -1 18 1 -5 19 -25 19 -50 26 -50
14z"/>
<path d="M7910 5661 c8 -5 26 -12 40 -16 22 -7 23 -6 11 9 -7 9 -25 16 -40 16
-19 -1 -22 -3 -11 -9z"/>
<path d="M8152 5659 c2 -7 10 -15 17 -17 8 -3 12 1 9 9 -2 7 -10 15 -17 17 -8
3 -12 -1 -9 -9z"/>
<path d="M8193 5655 c-6 -17 22 -44 45 -45 8 0 5 11 -10 30 -25 35 -27 35 -35
15z"/>
<path d="M8310 5660 c0 -5 5 -10 10 -10 6 0 10 5 10 10 0 6 -4 10 -10 10 -5 0
-10 -4 -10 -10z"/>
<path d="M8270 5641 c0 -6 9 -15 21 -21 18 -10 20 -9 17 7 -3 19 -38 32 -38
14z"/>
<path d="M8497 5633 c-4 -6 0 -16 8 -23 21 -17 28 -8 11 15 -8 11 -15 14 -19
8z"/>
<path d="M8330 5620 c0 -5 5 -10 10 -10 6 0 10 5 10 10 0 6 -4 10 -10 10 -5 0
-10 -4 -10 -10z"/>
<path d="M8075 5600 c3 -5 8 -10 11 -10 2 0 4 5 4 10 0 6 -5 10 -11 10 -5 0
-7 -4 -4 -10z"/>
<path d="M8260 5600 c0 -5 7 -10 16 -10 8 0 12 5 9 10 -3 6 -10 10 -16 10 -5
0 -9 -4 -9 -10z"/>
<path d="M8332 5578 c2 -6 10 -14 16 -16 7 -2 10 2 6 12 -7 18 -28 22 -22 4z"/>
<path d="M8550 5570 c0 -22 -35 -29 -42 -9 -5 15 -48 -11 -48 -28 0 -19 17
-16 30 5 8 12 13 13 16 5 6 -14 32 -17 58 -7 21 8 21 54 1 54 -8 0 -15 -9 -15
-20z"/>
<path d="M8404 5555 c24 -18 39 -20 34 -2 -3 6 -15 13 -29 15 -23 2 -23 2 -5
-13z"/>
<path d="M8614 5545 c0 -14 6 -23 11 -22 14 5 13 39 -1 44 -7 2 -11 -6 -10
-22z"/>
<path d="M8591 5471 c-11 -7 -9 -10 8 -16 25 -8 36 -2 26 14 -8 13 -15 14 -34
2z"/>
<path d="M6940 5069 c0 -5 5 -7 10 -4 6 3 10 8 10 11 0 2 -4 4 -10 4 -5 0 -10
-5 -10 -11z"/>
<path d="M6995 5040 c-4 -6 -2 -17 5 -24 14 -18 52 -8 48 13 -4 19 -43 27 -53
11z"/>
<path d="M7082 4994 c-36 -18 -49 -34 -30 -34 9 0 24 -3 34 -7 14 -5 16 -3 10
12 -4 11 -2 22 6 26 21 13 4 16 -20 3z"/>
<path d="M6958 4983 c-16 -4 -27 -33 -13 -33 12 0 75 29 75 34 0 7 -36 6 -62
-1z"/>
<path d="M7470 4690 c0 -5 14 -10 31 -10 17 0 28 4 24 10 -3 6 -17 10 -31 10
-13 0 -24 -4 -24 -10z"/>
<path d="M7560 4670 c0 -5 5 -10 10 -10 6 0 10 5 10 10 0 6 -4 10 -10 10 -5 0
-10 -4 -10 -10z"/>
<path d="M7157 4434 c-11 -12 3 -24 28 -24 13 0 26 4 29 9 10 15 -43 29 -57
15z"/>
<path d="M6280 4420 c0 -5 9 -10 21 -10 11 0 17 5 14 10 -3 6 -13 10 -21 10
-8 0 -14 -4 -14 -10z"/>
<path d="M6525 4291 c-3 -5 -2 -12 3 -15 13 -8 53 5 46 15 -7 12 -41 12 -49 0z"/>
<path d="M6190 4150 c-12 -8 -9 -10 13 -10 16 0 26 4 22 10 -8 12 -16 12 -35
0z"/>
<path d="M7110 4120 c0 -5 9 -10 19 -10 11 0 23 5 26 10 4 6 -5 10 -19 10 -14
0 -26 -4 -26 -10z"/>
<path d="M6188 3933 c7 -3 16 -2 19 1 4 3 -2 6 -13 5 -11 0 -14 -3 -6 -6z"/>
<path d="M6817 3713 c-9 -14 82 -38 95 -25 6 6 6 12 0 16 -18 11 -90 18 -95 9z"/>
<path d="M6830 3520 c0 -5 7 -10 16 -10 8 0 12 5 9 10 -3 6 -10 10 -16 10 -5
0 -9 -4 -9 -10z"/>
<path d="M6780 3510 c0 -5 5 -10 10 -10 6 0 10 5 10 10 0 6 -4 10 -10 10 -5 0
-10 -4 -10 -10z"/>
<path d="M6815 3440 c-3 -5 3 -10 14 -10 12 0 21 5 21 10 0 6 -6 10 -14 10 -8
0 -18 -4 -21 -10z"/>
<path d="M6885 3420 c3 -5 21 -10 38 -9 27 0 29 2 12 9 -28 12 -57 12 -50 0z"/>
</g>
</svg>
